<mxfile host="65bd71144e">
    <diagram id="TDjN-N1ZxqR8Xuvd0jzu" name="Page-1">
        <mxGraphModel dx="1917" dy="1877" grid="0" gridSize="10" guides="1" tooltips="1" connect="1" arrows="1" fold="1" page="1" pageScale="1" pageWidth="1654" pageHeight="1169" background="#999999" math="0" shadow="0">
            <root>
                <mxCell id="0"/>
                <mxCell id="1" parent="0"/>
                <mxCell id="33" style="edgeStyle=none;html=1;entryX=0.5;entryY=0;entryDx=0;entryDy=0;" parent="1" source="22" target="34" edge="1">
                    <mxGeometry relative="1" as="geometry">
                        <mxPoint x="833" y="437" as="targetPoint"/>
                    </mxGeometry>
                </mxCell>
                <mxCell id="22" value="«Annotation»&lt;br&gt;&lt;b&gt;API Gatway&lt;/b&gt;" style="html=1;dropTarget=0;" parent="1" vertex="1">
                    <mxGeometry x="743" y="277" width="180" height="90" as="geometry"/>
                </mxCell>
                <mxCell id="23" value="" style="shape=module;jettyWidth=8;jettyHeight=4;" parent="22" vertex="1">
                    <mxGeometry x="1" width="20" height="20" relative="1" as="geometry">
                        <mxPoint x="-27" y="7" as="offset"/>
                    </mxGeometry>
                </mxCell>
                <mxCell id="28" value="https request" style="edgeStyle=none;html=1;entryX=0.75;entryY=0;entryDx=0;entryDy=0;" parent="1" source="24" target="22" edge="1">
                    <mxGeometry x="0.0033" relative="1" as="geometry">
                        <mxPoint as="offset"/>
                    </mxGeometry>
                </mxCell>
                <mxCell id="24" value="«Annotation»&lt;br&gt;&lt;b&gt;WebAPP&lt;/b&gt;" style="html=1;dropTarget=0;" parent="1" vertex="1">
                    <mxGeometry x="838" y="127" width="180" height="90" as="geometry"/>
                </mxCell>
                <mxCell id="25" value="" style="shape=module;jettyWidth=8;jettyHeight=4;" parent="24" vertex="1">
                    <mxGeometry x="1" width="20" height="20" relative="1" as="geometry">
                        <mxPoint x="-27" y="7" as="offset"/>
                    </mxGeometry>
                </mxCell>
                <mxCell id="29" style="edgeStyle=none;html=1;exitX=0.5;exitY=1;exitDx=0;exitDy=0;" parent="1" source="26" edge="1">
                    <mxGeometry relative="1" as="geometry">
                        <mxPoint x="833" y="277" as="targetPoint"/>
                    </mxGeometry>
                </mxCell>
                <mxCell id="74" value="https request" style="edgeLabel;html=1;align=center;verticalAlign=middle;resizable=0;points=[];" vertex="1" connectable="0" parent="29">
                    <mxGeometry x="-0.36" y="-1" relative="1" as="geometry">
                        <mxPoint as="offset"/>
                    </mxGeometry>
                </mxCell>
                <mxCell id="26" value="«Annotation»&lt;br&gt;&lt;b&gt;Mobile App&lt;/b&gt;" style="html=1;dropTarget=0;" parent="1" vertex="1">
                    <mxGeometry x="638" y="127" width="180" height="90" as="geometry"/>
                </mxCell>
                <mxCell id="27" value="" style="shape=module;jettyWidth=8;jettyHeight=4;" parent="26" vertex="1">
                    <mxGeometry x="1" width="20" height="20" relative="1" as="geometry">
                        <mxPoint x="-27" y="7" as="offset"/>
                    </mxGeometry>
                </mxCell>
                <mxCell id="32" style="edgeStyle=none;html=1;entryX=0;entryY=0;entryDx=0;entryDy=0;" parent="1" source="30" target="22" edge="1">
                    <mxGeometry relative="1" as="geometry"/>
                </mxCell>
                <mxCell id="75" value="https request" style="edgeLabel;html=1;align=center;verticalAlign=middle;resizable=0;points=[];" vertex="1" connectable="0" parent="32">
                    <mxGeometry x="-0.3794" relative="1" as="geometry">
                        <mxPoint as="offset"/>
                    </mxGeometry>
                </mxCell>
                <mxCell id="30" value="«Annotation»&lt;br&gt;&lt;b&gt;API User&lt;/b&gt;" style="html=1;dropTarget=0;" parent="1" vertex="1">
                    <mxGeometry x="448" y="127" width="180" height="90" as="geometry"/>
                </mxCell>
                <mxCell id="31" value="" style="shape=module;jettyWidth=8;jettyHeight=4;" parent="30" vertex="1">
                    <mxGeometry x="1" width="20" height="20" relative="1" as="geometry">
                        <mxPoint x="-27" y="7" as="offset"/>
                    </mxGeometry>
                </mxCell>
                <mxCell id="38" style="edgeStyle=none;html=1;entryX=0.5;entryY=0;entryDx=0;entryDy=0;" parent="1" source="34" target="36" edge="1">
                    <mxGeometry relative="1" as="geometry"/>
                </mxCell>
                <mxCell id="34" value="«&lt;span style=&quot;font-size:11.0pt;line-height:107%;&lt;br/&gt;font-family:&amp;quot;Arial&amp;quot;,sans-serif;mso-ascii-theme-font:minor-bidi;mso-fareast-font-family:&lt;br/&gt;Calibri;mso-fareast-theme-font:minor-latin;mso-hansi-theme-font:minor-bidi;&lt;br/&gt;mso-bidi-theme-font:minor-bidi;mso-ansi-language:EN-US;mso-fareast-language:&lt;br/&gt;EN-US;mso-bidi-language:AR-SA&quot;&gt;ocelot&lt;/span&gt;&lt;span dir=&quot;RTL&quot;&gt;&lt;/span&gt;&lt;span dir=&quot;RTL&quot;&gt;&lt;/span&gt;&lt;span style=&quot;font-size:11.0pt;line-height:107%;font-family:&amp;quot;Arial&amp;quot;,sans-serif;&lt;br/&gt;mso-ascii-theme-font:minor-bidi;mso-fareast-font-family:Calibri;mso-fareast-theme-font:&lt;br/&gt;minor-latin;mso-hansi-theme-font:minor-bidi;mso-ansi-language:EN-US;mso-fareast-language:&lt;br/&gt;EN-US;mso-bidi-language:AR-SA&quot; dir=&quot;RTL&quot;&gt;&lt;span dir=&quot;RTL&quot;&gt;&lt;/span&gt;&lt;span dir=&quot;RTL&quot;&gt;&lt;/span&gt;&amp;nbsp;&lt;/span&gt;- OpenSpurce»&lt;br&gt;&lt;b&gt;Interal API&amp;nbsp;&lt;/b&gt;" style="html=1;dropTarget=0;" parent="1" vertex="1">
                    <mxGeometry x="743" y="407" width="180" height="90" as="geometry"/>
                </mxCell>
                <mxCell id="35" value="" style="shape=module;jettyWidth=8;jettyHeight=4;" parent="34" vertex="1">
                    <mxGeometry x="1" width="20" height="20" relative="1" as="geometry">
                        <mxPoint x="-27" y="7" as="offset"/>
                    </mxGeometry>
                </mxCell>
                <mxCell id="36" value="«Dotnet»&lt;br&gt;&lt;b&gt;Core&lt;/b&gt;" style="html=1;dropTarget=0;fillColor=#60a917;fontColor=#ffffff;strokeColor=#2D7600;" parent="1" vertex="1">
                    <mxGeometry x="743" y="537" width="180" height="90" as="geometry"/>
                </mxCell>
                <mxCell id="37" value="" style="shape=module;jettyWidth=8;jettyHeight=4;" parent="36" vertex="1">
                    <mxGeometry x="1" width="20" height="20" relative="1" as="geometry">
                        <mxPoint x="-27" y="7" as="offset"/>
                    </mxGeometry>
                </mxCell>
                <mxCell id="42" style="edgeStyle=none;html=1;exitX=0.5;exitY=0;exitDx=0;exitDy=0;entryX=0;entryY=0.5;entryDx=0;entryDy=0;" parent="1" source="40" target="36" edge="1">
                    <mxGeometry relative="1" as="geometry"/>
                </mxCell>
                <mxCell id="77" value="gRpc" style="edgeLabel;html=1;align=center;verticalAlign=middle;resizable=0;points=[];" vertex="1" connectable="0" parent="42">
                    <mxGeometry x="-0.1529" relative="1" as="geometry">
                        <mxPoint y="-1" as="offset"/>
                    </mxGeometry>
                </mxCell>
                <mxCell id="92" style="edgeStyle=none;html=1;exitX=0.75;exitY=1;exitDx=0;exitDy=0;entryX=0.277;entryY=0.386;entryDx=0;entryDy=0;entryPerimeter=0;fontSize=15;fontColor=#000000;" edge="1" parent="1" source="40" target="64">
                    <mxGeometry relative="1" as="geometry"/>
                </mxCell>
                <mxCell id="40" value="«Dotnet»&lt;br&gt;&lt;b&gt;Product&lt;/b&gt;" style="html=1;dropTarget=0;" parent="1" vertex="1">
                    <mxGeometry x="626" y="682" width="127" height="90" as="geometry"/>
                </mxCell>
                <mxCell id="41" value="" style="shape=module;jettyWidth=8;jettyHeight=4;" parent="40" vertex="1">
                    <mxGeometry x="1" width="20" height="20" relative="1" as="geometry">
                        <mxPoint x="-27" y="7" as="offset"/>
                    </mxGeometry>
                </mxCell>
                <mxCell id="45" style="edgeStyle=none;html=1;entryX=0.448;entryY=1.034;entryDx=0;entryDy=0;entryPerimeter=0;" parent="1" source="43" target="36" edge="1">
                    <mxGeometry relative="1" as="geometry"/>
                </mxCell>
                <mxCell id="78" value="gRpc" style="edgeLabel;html=1;align=center;verticalAlign=middle;resizable=0;points=[];" vertex="1" connectable="0" parent="45">
                    <mxGeometry x="-0.5505" relative="1" as="geometry">
                        <mxPoint as="offset"/>
                    </mxGeometry>
                </mxCell>
                <mxCell id="93" style="edgeStyle=none;html=1;exitX=0.75;exitY=1;exitDx=0;exitDy=0;entryX=0.544;entryY=0.386;entryDx=0;entryDy=0;entryPerimeter=0;fontSize=15;fontColor=#000000;" edge="1" parent="1" source="43" target="64">
                    <mxGeometry relative="1" as="geometry"/>
                </mxCell>
                <mxCell id="43" value="«Dotnet»&lt;br&gt;&lt;b&gt;Wallet&lt;/b&gt;" style="html=1;dropTarget=0;" parent="1" vertex="1">
                    <mxGeometry x="763" y="682" width="125" height="90" as="geometry"/>
                </mxCell>
                <mxCell id="44" value="" style="shape=module;jettyWidth=8;jettyHeight=4;" parent="43" vertex="1">
                    <mxGeometry x="1" width="20" height="20" relative="1" as="geometry">
                        <mxPoint x="-27" y="7" as="offset"/>
                    </mxGeometry>
                </mxCell>
                <mxCell id="50" value="gRpc" style="edgeStyle=none;html=1;exitX=0.75;exitY=0;exitDx=0;exitDy=0;entryX=0;entryY=0.25;entryDx=0;entryDy=0;" parent="1" source="46" target="36" edge="1">
                    <mxGeometry relative="1" as="geometry"/>
                </mxCell>
                <mxCell id="91" style="edgeStyle=none;html=1;exitX=0.75;exitY=1;exitDx=0;exitDy=0;entryX=0.106;entryY=0.456;entryDx=0;entryDy=0;entryPerimeter=0;fontSize=15;fontColor=#000000;" edge="1" parent="1" source="46" target="64">
                    <mxGeometry relative="1" as="geometry"/>
                </mxCell>
                <mxCell id="46" value="«Dotnet»&lt;br&gt;&lt;b&gt;Notification&lt;/b&gt;" style="html=1;dropTarget=0;" parent="1" vertex="1">
                    <mxGeometry x="499" y="682" width="122" height="90" as="geometry"/>
                </mxCell>
                <mxCell id="47" value="" style="shape=module;jettyWidth=8;jettyHeight=4;" parent="46" vertex="1">
                    <mxGeometry x="1" width="20" height="20" relative="1" as="geometry">
                        <mxPoint x="-27" y="7" as="offset"/>
                    </mxGeometry>
                </mxCell>
                <mxCell id="51" style="edgeStyle=none;html=1;entryX=1;entryY=0.25;entryDx=0;entryDy=0;exitX=0.25;exitY=0;exitDx=0;exitDy=0;" parent="1" source="48" target="36" edge="1">
                    <mxGeometry relative="1" as="geometry"/>
                </mxCell>
                <mxCell id="81" value="gRpc" style="edgeLabel;html=1;align=center;verticalAlign=middle;resizable=0;points=[];" vertex="1" connectable="0" parent="51">
                    <mxGeometry x="-0.3669" y="2" relative="1" as="geometry">
                        <mxPoint y="1" as="offset"/>
                    </mxGeometry>
                </mxCell>
                <mxCell id="97" style="edgeStyle=none;html=1;exitX=0.25;exitY=1;exitDx=0;exitDy=0;entryX=0.931;entryY=0.4;entryDx=0;entryDy=0;entryPerimeter=0;fontSize=15;fontColor=#000000;" edge="1" parent="1" source="48" target="64">
                    <mxGeometry relative="1" as="geometry"/>
                </mxCell>
                <mxCell id="48" value="«Dotnet»&lt;br&gt;&lt;b&gt;Accounting&lt;/b&gt;" style="html=1;dropTarget=0;" parent="1" vertex="1">
                    <mxGeometry x="1145" y="682" width="118" height="90" as="geometry"/>
                </mxCell>
                <mxCell id="49" value="" style="shape=module;jettyWidth=8;jettyHeight=4;" parent="48" vertex="1">
                    <mxGeometry x="1" width="20" height="20" relative="1" as="geometry">
                        <mxPoint x="-27" y="7" as="offset"/>
                    </mxGeometry>
                </mxCell>
                <mxCell id="54" style="edgeStyle=none;html=1;entryX=1;entryY=1;entryDx=0;entryDy=0;" parent="1" source="52" target="36" edge="1">
                    <mxGeometry relative="1" as="geometry"/>
                </mxCell>
                <mxCell id="79" value="gRpc" style="edgeLabel;html=1;align=center;verticalAlign=middle;resizable=0;points=[];" vertex="1" connectable="0" parent="54">
                    <mxGeometry x="-0.2224" y="-2" relative="1" as="geometry">
                        <mxPoint as="offset"/>
                    </mxGeometry>
                </mxCell>
                <mxCell id="96" style="edgeStyle=none;html=1;exitX=0.25;exitY=1;exitDx=0;exitDy=0;entryX=0.684;entryY=0.386;entryDx=0;entryDy=0;entryPerimeter=0;fontSize=15;fontColor=#000000;" edge="1" parent="1" source="52" target="64">
                    <mxGeometry relative="1" as="geometry"/>
                </mxCell>
                <mxCell id="52" value="«Dotnet»&lt;br&gt;&lt;b&gt;Agent&lt;/b&gt;" style="html=1;dropTarget=0;" parent="1" vertex="1">
                    <mxGeometry x="898" y="682" width="119" height="90" as="geometry"/>
                </mxCell>
                <mxCell id="53" value="" style="shape=module;jettyWidth=8;jettyHeight=4;" parent="52" vertex="1">
                    <mxGeometry x="1" width="20" height="20" relative="1" as="geometry">
                        <mxPoint x="-27" y="7" as="offset"/>
                    </mxGeometry>
                </mxCell>
                <mxCell id="60" style="edgeStyle=none;html=1;exitX=0.25;exitY=0;exitDx=0;exitDy=0;entryX=1;entryY=0.75;entryDx=0;entryDy=0;" parent="1" source="55" target="36" edge="1">
                    <mxGeometry relative="1" as="geometry"/>
                </mxCell>
                <mxCell id="80" value="gRpc" style="edgeLabel;html=1;align=center;verticalAlign=middle;resizable=0;points=[];" vertex="1" connectable="0" parent="60">
                    <mxGeometry x="0.2559" y="1" relative="1" as="geometry">
                        <mxPoint as="offset"/>
                    </mxGeometry>
                </mxCell>
                <mxCell id="95" style="edgeStyle=none;html=1;exitX=0.25;exitY=1;exitDx=0;exitDy=0;entryX=0.835;entryY=0.414;entryDx=0;entryDy=0;entryPerimeter=0;fontSize=15;fontColor=#000000;" edge="1" parent="1" source="55" target="64">
                    <mxGeometry relative="1" as="geometry"/>
                </mxCell>
                <mxCell id="55" value="«Dotnet»&lt;br&gt;&lt;b&gt;Payment&lt;/b&gt;" style="html=1;dropTarget=0;" parent="1" vertex="1">
                    <mxGeometry x="1024" y="682" width="114" height="90" as="geometry"/>
                </mxCell>
                <mxCell id="56" value="" style="shape=module;jettyWidth=8;jettyHeight=4;" parent="55" vertex="1">
                    <mxGeometry x="1" width="20" height="20" relative="1" as="geometry">
                        <mxPoint x="-27" y="7" as="offset"/>
                    </mxGeometry>
                </mxCell>
                <mxCell id="59" style="edgeStyle=none;html=1;exitX=0.25;exitY=0;exitDx=0;exitDy=0;entryX=0.956;entryY=0.011;entryDx=0;entryDy=0;entryPerimeter=0;" parent="1" source="57" target="36" edge="1">
                    <mxGeometry relative="1" as="geometry"/>
                </mxCell>
                <mxCell id="82" value="gRpc" style="edgeLabel;html=1;align=center;verticalAlign=middle;resizable=0;points=[];" vertex="1" connectable="0" parent="59">
                    <mxGeometry x="-0.1665" y="3" relative="1" as="geometry">
                        <mxPoint as="offset"/>
                    </mxGeometry>
                </mxCell>
                <mxCell id="98" style="edgeStyle=none;html=1;exitX=0.25;exitY=1;exitDx=0;exitDy=0;entryX=0.991;entryY=0.386;entryDx=0;entryDy=0;entryPerimeter=0;fontSize=15;fontColor=#000000;" edge="1" parent="1" source="57" target="64">
                    <mxGeometry relative="1" as="geometry"/>
                </mxCell>
                <mxCell id="57" value="«Dotnet»&lt;br&gt;&lt;b&gt;UserManagment&lt;/b&gt;" style="html=1;dropTarget=0;" parent="1" vertex="1">
                    <mxGeometry x="1279" y="682" width="117" height="90" as="geometry"/>
                </mxCell>
                <mxCell id="58" value="" style="shape=module;jettyWidth=8;jettyHeight=4;" parent="57" vertex="1">
                    <mxGeometry x="1" width="20" height="20" relative="1" as="geometry">
                        <mxPoint x="-27" y="7" as="offset"/>
                    </mxGeometry>
                </mxCell>
                <mxCell id="63" style="edgeStyle=none;html=1;exitX=0.75;exitY=0;exitDx=0;exitDy=0;entryX=0;entryY=0;entryDx=0;entryDy=0;" parent="1" source="61" target="36" edge="1">
                    <mxGeometry relative="1" as="geometry"/>
                </mxCell>
                <mxCell id="76" value="gRpc" style="edgeLabel;html=1;align=center;verticalAlign=middle;resizable=0;points=[];" vertex="1" connectable="0" parent="63">
                    <mxGeometry x="-0.3261" y="1" relative="1" as="geometry">
                        <mxPoint as="offset"/>
                    </mxGeometry>
                </mxCell>
                <mxCell id="90" style="edgeStyle=none;html=1;exitX=0.75;exitY=1;exitDx=0;exitDy=0;entryX=0;entryY=0.5;entryDx=2.7;entryDy=0;entryPerimeter=0;fontSize=15;fontColor=#000000;" edge="1" parent="1" source="61" target="64">
                    <mxGeometry relative="1" as="geometry"/>
                </mxCell>
                <mxCell id="61" value="«Dotnet»&lt;br&gt;&lt;b&gt;CMS&lt;/b&gt;" style="html=1;dropTarget=0;" parent="1" vertex="1">
                    <mxGeometry x="377" y="682" width="112" height="90" as="geometry"/>
                </mxCell>
                <mxCell id="62" value="" style="shape=module;jettyWidth=8;jettyHeight=4;" parent="61" vertex="1">
                    <mxGeometry x="1" width="20" height="20" relative="1" as="geometry">
                        <mxPoint x="-27" y="7" as="offset"/>
                    </mxGeometry>
                </mxCell>
                <mxCell id="64" value="&lt;font style=&quot;font-size: 15px;&quot; color=&quot;#000000&quot;&gt;MASSAGE BROKER&lt;/font&gt;" style="strokeWidth=2;strokeColor=#000000;dashed=0;align=center;html=1;fontSize=8;shape=mxgraph.eip.messageChannel;" vertex="1" parent="1">
                    <mxGeometry x="654" y="947" width="386" height="110" as="geometry"/>
                </mxCell>
                <mxCell id="69" value="&lt;br&gt;DB" style="strokeWidth=2;html=1;shape=mxgraph.flowchart.database;whiteSpace=wrap;" vertex="1" parent="1">
                    <mxGeometry x="404" y="784" width="44" height="34" as="geometry"/>
                </mxCell>
                <mxCell id="72" style="edgeStyle=none;html=1;exitX=0;exitY=1;exitDx=0;exitDy=0;entryX=1;entryY=0;entryDx=0;entryDy=0;" edge="1" parent="1" source="70" target="22">
                    <mxGeometry relative="1" as="geometry"/>
                </mxCell>
                <mxCell id="73" value="https request" style="edgeLabel;html=1;align=center;verticalAlign=middle;resizable=0;points=[];" vertex="1" connectable="0" parent="72">
                    <mxGeometry x="-0.1554" relative="1" as="geometry">
                        <mxPoint y="1" as="offset"/>
                    </mxGeometry>
                </mxCell>
                <mxCell id="70" value="«Annotation»&lt;br&gt;&lt;b&gt;Plugin Wordpress&lt;/b&gt;" style="html=1;dropTarget=0;" vertex="1" parent="1">
                    <mxGeometry x="1038" y="127" width="180" height="90" as="geometry"/>
                </mxCell>
                <mxCell id="71" value="" style="shape=module;jettyWidth=8;jettyHeight=4;" vertex="1" parent="70">
                    <mxGeometry x="1" width="20" height="20" relative="1" as="geometry">
                        <mxPoint x="-27" y="7" as="offset"/>
                    </mxGeometry>
                </mxCell>
                <mxCell id="83" value="&lt;br&gt;DB" style="strokeWidth=2;html=1;shape=mxgraph.flowchart.database;whiteSpace=wrap;" vertex="1" parent="1">
                    <mxGeometry x="535" y="784" width="44" height="34" as="geometry"/>
                </mxCell>
                <mxCell id="84" value="&lt;br&gt;DB" style="strokeWidth=2;html=1;shape=mxgraph.flowchart.database;whiteSpace=wrap;" vertex="1" parent="1">
                    <mxGeometry x="674" y="784" width="44" height="34" as="geometry"/>
                </mxCell>
                <mxCell id="85" value="&lt;br&gt;DB" style="strokeWidth=2;html=1;shape=mxgraph.flowchart.database;whiteSpace=wrap;" vertex="1" parent="1">
                    <mxGeometry x="803.5" y="784" width="44" height="34" as="geometry"/>
                </mxCell>
                <mxCell id="86" value="&lt;br&gt;DB" style="strokeWidth=2;html=1;shape=mxgraph.flowchart.database;whiteSpace=wrap;" vertex="1" parent="1">
                    <mxGeometry x="935.5" y="784" width="44" height="34" as="geometry"/>
                </mxCell>
                <mxCell id="87" value="&lt;br&gt;DB" style="strokeWidth=2;html=1;shape=mxgraph.flowchart.database;whiteSpace=wrap;" vertex="1" parent="1">
                    <mxGeometry x="1059" y="784" width="44" height="34" as="geometry"/>
                </mxCell>
                <mxCell id="88" value="&lt;br&gt;DB" style="strokeWidth=2;html=1;shape=mxgraph.flowchart.database;whiteSpace=wrap;" vertex="1" parent="1">
                    <mxGeometry x="1182" y="784" width="44" height="34" as="geometry"/>
                </mxCell>
                <mxCell id="89" value="&lt;br&gt;DB" style="strokeWidth=2;html=1;shape=mxgraph.flowchart.database;whiteSpace=wrap;" vertex="1" parent="1">
                    <mxGeometry x="1315.5" y="784" width="44" height="34" as="geometry"/>
                </mxCell>
            </root>
        </mxGraphModel>
    </diagram>
</mxfile>